<?xml version="1.0" standalone="no"?>
<!DOCTYPE svg PUBLIC "-//W3C//DTD SVG 20010904//EN"
 "http://www.w3.org/TR/2001/REC-SVG-20010904/DTD/svg10.dtd">
<svg version="1.0" xmlns="http://www.w3.org/2000/svg"
 width="512.000000pt" height="512.000000pt" viewBox="0 0 512.000000 512.000000"
 preserveAspectRatio="xMidYMid meet">
<metadata>
Created by potrace 1.14, written by Peter Selinger 2001-2017
</metadata>
<g transform="translate(0.000000,512.000000) scale(0.100000,-0.100000)"
fill="#000000" stroke="none">
<path d="M1136 4683 c-1 -1 -11 -4 -22 -6 -32 -5 -115 -49 -121 -63 -3 -8 -11
-14 -19 -14 -8 0 -14 -4 -14 -8 0 -10 -144 -159 -187 -192 -17 -14 -44 -34
-59 -45 -15 -11 -32 -24 -39 -30 -6 -5 -18 -14 -27 -20 -51 -31 -248 -170
-278 -195 -104 -90 -218 -214 -213 -231 2 -5 -1 -9 -5 -9 -5 0 -19 -19 -32
-42 -13 -24 -28 -46 -33 -49 -5 -3 -8 -8 -7 -10 2 -4 -9 -33 -33 -91 -8 -20
-13 -39 -9 -42 3 -3 1 -6 -5 -6 -11 0 -22 -32 -29 -80 -4 -29 25 -130 37 -130
5 0 9 -5 9 -12 0 -12 45 -56 130 -128 90 -76 134 -114 156 -135 32 -31 64 -55
64 -50 0 3 6 1 13 -5 6 -6 27 -20 45 -31 18 -10 37 -31 42 -45 15 -38 69 -114
115 -160 40 -40 165 -130 165 -119 0 4 12 -2 28 -13 15 -11 29 -20 32 -19 3 0
29 -8 58 -17 29 -10 61 -19 70 -21 9 -2 17 -4 17 -5 0 -3 38 -10 75 -14 19 -3
48 -9 63 -15 15 -6 27 -8 27 -4 0 4 12 -4 26 -18 29 -27 51 -65 57 -100 5 -27
26 -105 35 -129 3 -8 4 -20 3 -27 -1 -6 3 -14 9 -18 5 -3 10 -13 10 -22 0 -8
19 -54 42 -102 22 -47 40 -89 40 -93 -1 -5 2 -8 8 -8 5 0 10 -5 10 -10 0 -6
25 -51 55 -101 30 -50 55 -92 55 -95 0 -2 7 -12 16 -22 8 -9 50 -64 92 -122
42 -57 79 -103 82 -101 11 9 51 -21 49 -37 -2 -14 3 -45 16 -102 14 -60 55
-171 91 -244 8 -18 10 -33 5 -40 -8 -10 -16 -53 -12 -66 1 -3 4 -27 6 -55 4
-58 8 -82 18 -91 4 -4 7 -17 7 -29 0 -12 3 -25 8 -29 4 -4 7 -11 8 -14 1 -12
28 -66 58 -117 38 -64 119 -145 206 -205 12 -8 56 -40 99 -70 114 -82 161
-111 182 -113 10 -1 19 -4 19 -8 0 -9 35 -19 85 -26 41 -5 145 23 145 40 0 4
4 6 9 3 4 -3 19 3 31 14 12 11 27 17 31 14 5 -3 9 -1 9 3 0 5 14 17 32 27 17
11 39 25 47 32 9 7 41 30 72 51 99 67 209 163 209 183 0 5 4 10 9 10 4 0 19
20 32 45 13 25 28 45 32 45 5 0 6 4 2 9 -3 5 -1 12 5 16 6 4 8 11 5 16 -4 5
-1 9 4 9 6 0 11 8 11 18 0 10 3 22 8 26 4 4 8 12 8 17 1 5 2 10 4 12 1 1 3 9
5 17 2 8 7 26 10 40 16 60 16 140 0 170 -9 17 -11 30 -5 30 5 0 10 4 10 9 0 5
10 30 22 57 12 27 23 51 23 54 2 5 4 10 21 55 9 24 8 22 17 60 4 17 10 41 13
55 4 14 7 36 8 50 1 28 10 39 46 58 14 7 34 26 45 42 11 17 23 30 28 30 4 0 7
7 7 15 0 8 5 15 12 15 6 0 9 3 6 6 -4 3 1 14 10 24 10 10 22 25 27 32 52 69
65 88 59 88 -4 0 2 10 13 23 11 12 38 54 58 92 21 39 45 78 53 88 8 9 12 17 8
17 -3 0 8 25 25 55 17 30 32 60 33 67 2 7 10 30 20 50 9 21 16 44 16 51 0 8 3
17 7 20 3 4 8 19 10 34 3 16 5 35 7 43 1 9 5 20 8 25 3 6 8 27 12 47 6 33 62
107 83 109 5 0 17 2 28 5 11 2 38 6 60 9 64 8 125 20 133 25 1 2 5 3 10 5 50
14 157 71 229 122 72 51 145 131 173 189 22 45 56 78 113 109 20 12 65 48 99
81 35 33 81 73 103 90 45 33 58 44 113 97 27 25 49 60 66 106 25 64 26 69 11
104 -8 20 -15 38 -14 39 0 2 -4 14 -9 28 -16 39 -25 64 -26 72 -1 3 -4 10 -8
14 -5 4 -8 16 -8 26 0 10 -4 18 -9 18 -5 0 -13 10 -17 23 -26 84 -192 261
-334 357 -13 8 -35 25 -50 38 -15 12 -33 22 -39 22 -6 0 -11 3 -11 8 0 4 -17
18 -38 32 -116 77 -250 187 -336 279 -22 23 -53 56 -69 72 -15 16 -32 29 -37
29 -6 0 -10 4 -10 9 0 7 -43 29 -70 35 -3 1 -9 4 -15 8 -23 14 -199 -5 -222
-24 -7 -6 -13 -8 -13 -5 0 3 -26 -2 -57 -10 -32 -9 -65 -17 -73 -18 -8 -1 -28
-7 -44 -14 -16 -6 -37 -13 -47 -14 -33 -5 -137 -79 -149 -106 -6 -14 -10 -26
-8 -27 1 0 -2 -7 -8 -15 -16 -21 -10 -174 10 -241 9 -31 27 -70 41 -86 23 -27
98 -70 135 -77 8 -2 15 -4 15 -5 0 -5 69 -11 120 -11 66 0 84 3 103 14 6 5 12
6 12 2 0 -3 10 0 23 7 12 7 25 11 30 10 4 -1 7 2 7 8 0 5 7 10 15 10 8 0 15 5
15 10 0 6 7 10 15 10 8 0 15 4 15 9 0 6 9 9 21 8 32 -2 93 -138 122 -272 2 -5
6 -16 11 -23 10 -17 8 -19 -30 -25 -53 -8 -153 -75 -137 -91 4 -3 1 -6 -5 -6
-10 0 -45 -53 -47 -70 -2 -21 -20 -29 -53 -24 -47 8 -67 12 -67 14 0 1 -10 3
-22 4 -13 2 -23 0 -23 -3 0 -3 -14 -6 -31 -5 -17 0 -50 -3 -73 -8 -22 -5 -50
-11 -61 -13 -11 -2 -21 -4 -22 -5 -2 -2 -6 -3 -10 -4 -25 -5 -128 -61 -169
-92 -50 -37 -113 -98 -151 -147 l-21 -28 -33 20 c-18 11 -36 18 -41 15 -4 -3
-8 0 -8 7 0 7 -3 10 -6 7 -9 -10 -91 22 -109 42 -13 14 -15 28 -10 60 4 22 13
46 20 53 7 7 16 24 20 37 4 14 12 28 17 31 21 14 45 239 25 239 -6 0 -8 3 -4
6 3 4 0 21 -8 39 -8 20 -13 70 -13 127 0 99 -4 126 -31 193 -22 58 -36 79 -86
129 -58 59 -94 86 -112 86 -7 0 -13 5 -13 12 0 6 -3 9 -6 6 -3 -4 -17 0 -31 7
-15 8 -30 12 -35 9 -4 -3 -8 -1 -8 3 0 10 -14 12 -125 16 -44 2 -84 1 -90 -2
-11 -6 -13 -7 -60 -16 -16 -3 -34 -10 -40 -14 -5 -5 -21 -12 -35 -16 -46 -14
-127 -78 -165 -131 -36 -50 -69 -114 -59 -114 3 0 0 -9 -6 -21 -6 -11 -13 -47
-15 -79 -2 -32 -6 -63 -9 -69 -4 -5 -2 -13 4 -16 8 -5 7 -11 -1 -21 -7 -9 -8
-14 -1 -14 7 0 8 -10 2 -30 -5 -16 -6 -30 -3 -30 3 0 0 -6 -6 -13 -9 -12 -24
-85 -22 -112 8 -117 12 -132 70 -243 9 -18 18 -50 19 -71 2 -31 -2 -41 -23
-55 -15 -10 -35 -18 -46 -19 -10 -1 -19 -5 -19 -9 0 -4 -8 -5 -19 -3 -10 2
-36 -8 -56 -22 -37 -25 -39 -25 -52 -8 -7 11 -13 22 -13 25 0 4 -11 13 -25 20
-14 7 -23 15 -21 18 6 6 -60 67 -109 101 -63 44 -154 88 -195 95 -14 3 -25 5
-25 6 0 11 -212 23 -229 12 -22 -13 -50 -12 -67 4 -10 9 -16 20 -14 25 3 4 -2
14 -10 22 -8 9 -15 18 -15 22 0 4 -17 24 -38 46 -38 38 -104 74 -116 62 -3 -4
-6 -1 -6 5 0 6 -7 9 -16 5 -14 -5 -16 -2 -10 23 9 39 14 59 16 59 1 0 3 8 6
18 2 9 6 25 8 35 3 9 5 18 6 20 2 1 3 5 5 10 1 4 5 15 9 24 4 9 8 22 10 30 4
30 48 87 69 90 13 2 53 -15 96 -41 66 -39 81 -44 135 -44 65 0 131 9 150 20 6
4 17 8 24 9 32 5 89 39 115 68 24 27 45 79 52 126 2 8 6 38 10 65 4 28 8 59 9
70 3 34 -22 106 -46 132 -24 26 -118 87 -118 77 0 -4 -7 -1 -15 6 -8 7 -15 9
-15 5 0 -4 -7 -2 -15 5 -8 7 -15 9 -15 5 0 -4 -6 -3 -12 2 -7 5 -29 10 -48 12
-19 2 -39 6 -45 9 -5 4 -19 7 -30 8 -35 4 -79 13 -110 22 -16 5 -45 9 -63 8
-17 -1 -32 1 -32 4 0 6 -39 8 -44 3z"/>
</g>
</svg>
